<mxfile host="app.diagrams.net" modified="2020-06-18T05:23:21.900Z" agent="5.0 (Macintosh; Intel Mac OS X 10_15_5) AppleWebKit/537.36 (KHTML, like Gecko) Chrome/83.0.4103.97 Safari/537.36" etag="fpq4ZACPD1lU-y28Zdxc" version="13.1.1" type="github">
  <diagram id="Z3yQurvD0VO6uVz74y77" name="Page-1">
    <mxGraphModel dx="1426" dy="794" grid="1" gridSize="10" guides="1" tooltips="1" connect="1" arrows="1" fold="1" page="1" pageScale="1" pageWidth="827" pageHeight="1169" math="0" shadow="0">
      <root>
        <mxCell id="0" />
        <mxCell id="1" parent="0" />
        <mxCell id="L_uKkAGZL4GMWtxyW87k-1" value="" style="whiteSpace=wrap;html=1;fillColor=none;dashed=1;" vertex="1" parent="1">
          <mxGeometry x="110" y="200" width="550" height="270" as="geometry" />
        </mxCell>
        <mxCell id="L_uKkAGZL4GMWtxyW87k-13" style="rounded=0;orthogonalLoop=1;jettySize=auto;html=1;exitX=0.25;exitY=1;exitDx=0;exitDy=0;exitPerimeter=0;entryX=0.5;entryY=0;entryDx=0;entryDy=0;entryPerimeter=0;strokeWidth=2;dashed=1;strokeColor=#A8A8A8;" edge="1" parent="1" source="L_uKkAGZL4GMWtxyW87k-2" target="L_uKkAGZL4GMWtxyW87k-5">
          <mxGeometry relative="1" as="geometry" />
        </mxCell>
        <mxCell id="L_uKkAGZL4GMWtxyW87k-14" style="rounded=0;orthogonalLoop=1;jettySize=auto;html=1;exitX=0.75;exitY=1;exitDx=0;exitDy=0;exitPerimeter=0;entryX=0.5;entryY=0;entryDx=0;entryDy=0;entryPerimeter=0;strokeWidth=2;dashed=1;strokeColor=#A8A8A8;" edge="1" parent="1" source="L_uKkAGZL4GMWtxyW87k-2" target="L_uKkAGZL4GMWtxyW87k-6">
          <mxGeometry relative="1" as="geometry" />
        </mxCell>
        <mxCell id="L_uKkAGZL4GMWtxyW87k-2" value="&lt;span&gt;&lt;b&gt;BFF&lt;/b&gt;&lt;/span&gt;&lt;br&gt;&lt;div&gt;[Container:&amp;nbsp;&lt;span&gt;Kotlin&lt;/span&gt;&lt;span&gt;]&lt;/span&gt;&lt;/div&gt;&lt;div&gt;&lt;br&gt;&lt;/div&gt;&lt;div&gt;Porta de entrada para os serviços, possui informações filtradas e agregadas por página do front&lt;/div&gt;" style="rounded=1;whiteSpace=wrap;html=1;labelBackgroundColor=none;fillColor=#dae8fc;fontColor=#000000;align=center;arcSize=10;strokeColor=#6c8ebf;points=[[0.25,0,0],[0.5,0,0],[0.75,0,0],[1,0.25,0],[1,0.5,0],[1,0.75,0],[0.75,1,0],[0.5,1,0],[0.25,1,0],[0,0.75,0],[0,0.5,0],[0,0.25,0]];" vertex="1" parent="1">
          <mxGeometry x="320" y="50" width="160" height="110.00000000000001" as="geometry" />
        </mxCell>
        <mxCell id="L_uKkAGZL4GMWtxyW87k-3" value="&lt;b&gt;Exame service&lt;/b&gt;&lt;br&gt;&lt;div&gt;[Container:&amp;nbsp;&lt;span&gt;Kotlin&lt;/span&gt;&lt;span&gt;]&lt;/span&gt;&lt;/div&gt;&lt;br&gt;&lt;div&gt;API para exames&lt;/div&gt;" style="rounded=1;whiteSpace=wrap;html=1;labelBackgroundColor=none;fillColor=#dae8fc;fontColor=#000000;align=center;arcSize=10;strokeColor=#6c8ebf;points=[[0.25,0,0],[0.5,0,0],[0.75,0,0],[1,0.25,0],[1,0.5,0],[1,0.75,0],[0.75,1,0],[0.5,1,0],[0.25,1,0],[0,0.75,0],[0,0.5,0],[0,0.25,0]];" vertex="1" parent="1">
          <mxGeometry x="145" y="500" width="160" height="70" as="geometry" />
        </mxCell>
        <mxCell id="L_uKkAGZL4GMWtxyW87k-4" value="&lt;b&gt;Consulta service&lt;/b&gt;&lt;br&gt;&lt;div&gt;[Container:&amp;nbsp;&lt;span&gt;Kotlin&lt;/span&gt;&lt;span&gt;]&lt;/span&gt;&lt;/div&gt;&lt;br&gt;&lt;div&gt;API para consultas&lt;/div&gt;" style="rounded=1;whiteSpace=wrap;html=1;labelBackgroundColor=none;fillColor=#dae8fc;fontColor=#000000;align=center;arcSize=10;strokeColor=#6c8ebf;points=[[0.25,0,0],[0.5,0,0],[0.75,0,0],[1,0.25,0],[1,0.5,0],[1,0.75,0],[0.75,1,0],[0.5,1,0],[0.25,1,0],[0,0.75,0],[0,0.5,0],[0,0.25,0]];" vertex="1" parent="1">
          <mxGeometry x="465" y="500" width="160" height="70" as="geometry" />
        </mxCell>
        <mxCell id="L_uKkAGZL4GMWtxyW87k-12" style="rounded=0;orthogonalLoop=1;jettySize=auto;html=1;exitX=0.5;exitY=1;exitDx=0;exitDy=0;exitPerimeter=0;entryX=0.5;entryY=0;entryDx=0;entryDy=0;entryPerimeter=0;strokeWidth=2;dashed=1;strokeColor=#A8A8A8;" edge="1" parent="1" source="L_uKkAGZL4GMWtxyW87k-5" target="L_uKkAGZL4GMWtxyW87k-7">
          <mxGeometry relative="1" as="geometry" />
        </mxCell>
        <mxCell id="L_uKkAGZL4GMWtxyW87k-5" value="&lt;span&gt;&lt;b&gt;ExameRest&lt;/b&gt;&lt;/span&gt;&lt;br&gt;&lt;div&gt;[Container:&amp;nbsp;&lt;span&gt;Kotlin&lt;/span&gt;&lt;span&gt;]&lt;/span&gt;&lt;/div&gt;&lt;div&gt;&lt;br&gt;&lt;/div&gt;&lt;div&gt;Endpoints para a página de exame&lt;/div&gt;" style="rounded=1;whiteSpace=wrap;html=1;labelBackgroundColor=none;fillColor=#dae8fc;fontColor=#000000;align=center;arcSize=10;strokeColor=#6c8ebf;points=[[0.25,0,0],[0.5,0,0],[0.75,0,0],[1,0.25,0],[1,0.5,0],[1,0.75,0],[0.75,1,0],[0.5,1,0],[0.25,1,0],[0,0.75,0],[0,0.5,0],[0,0.25,0]];" vertex="1" parent="1">
          <mxGeometry x="145" y="220" width="160" height="80" as="geometry" />
        </mxCell>
        <mxCell id="L_uKkAGZL4GMWtxyW87k-11" style="rounded=0;orthogonalLoop=1;jettySize=auto;html=1;exitX=0.5;exitY=1;exitDx=0;exitDy=0;exitPerimeter=0;entryX=0.5;entryY=0;entryDx=0;entryDy=0;entryPerimeter=0;strokeWidth=2;dashed=1;strokeColor=#A8A8A8;" edge="1" parent="1" source="L_uKkAGZL4GMWtxyW87k-6" target="L_uKkAGZL4GMWtxyW87k-8">
          <mxGeometry relative="1" as="geometry" />
        </mxCell>
        <mxCell id="L_uKkAGZL4GMWtxyW87k-6" value="&lt;span&gt;&lt;b&gt;ConsultaRest&lt;/b&gt;&lt;/span&gt;&lt;br&gt;&lt;div&gt;[Container:&amp;nbsp;&lt;span&gt;Kotlin&lt;/span&gt;&lt;span&gt;]&lt;/span&gt;&lt;/div&gt;&lt;div&gt;&lt;br&gt;&lt;/div&gt;&lt;div&gt;Endpoints para a página de consulta&lt;/div&gt;" style="rounded=1;whiteSpace=wrap;html=1;labelBackgroundColor=none;fillColor=#dae8fc;fontColor=#000000;align=center;arcSize=10;strokeColor=#6c8ebf;points=[[0.25,0,0],[0.5,0,0],[0.75,0,0],[1,0.25,0],[1,0.5,0],[1,0.75,0],[0.75,1,0],[0.5,1,0],[0.25,1,0],[0,0.75,0],[0,0.5,0],[0,0.25,0]];" vertex="1" parent="1">
          <mxGeometry x="465" y="220" width="160" height="80" as="geometry" />
        </mxCell>
        <mxCell id="L_uKkAGZL4GMWtxyW87k-9" style="rounded=0;orthogonalLoop=1;jettySize=auto;html=1;exitX=0.5;exitY=1;exitDx=0;exitDy=0;exitPerimeter=0;entryX=0.5;entryY=0;entryDx=0;entryDy=0;entryPerimeter=0;strokeWidth=2;dashed=1;strokeColor=#A8A8A8;" edge="1" parent="1" source="L_uKkAGZL4GMWtxyW87k-7" target="L_uKkAGZL4GMWtxyW87k-3">
          <mxGeometry relative="1" as="geometry" />
        </mxCell>
        <mxCell id="L_uKkAGZL4GMWtxyW87k-7" value="&lt;span&gt;&lt;b&gt;ExameService&lt;/b&gt;&lt;/span&gt;&lt;br&gt;&lt;div&gt;[Container:&amp;nbsp;&lt;span&gt;Kotlin&lt;/span&gt;&lt;span&gt;]&lt;/span&gt;&lt;/div&gt;&lt;div&gt;&lt;br&gt;&lt;/div&gt;&lt;div&gt;Regras de negócio e criação do payload&lt;/div&gt;" style="rounded=1;whiteSpace=wrap;html=1;labelBackgroundColor=none;fillColor=#dae8fc;fontColor=#000000;align=center;arcSize=10;strokeColor=#6c8ebf;points=[[0.25,0,0],[0.5,0,0],[0.75,0,0],[1,0.25,0],[1,0.5,0],[1,0.75,0],[0.75,1,0],[0.5,1,0],[0.25,1,0],[0,0.75,0],[0,0.5,0],[0,0.25,0]];" vertex="1" parent="1">
          <mxGeometry x="145" y="330" width="160" height="80" as="geometry" />
        </mxCell>
        <mxCell id="L_uKkAGZL4GMWtxyW87k-10" style="rounded=0;orthogonalLoop=1;jettySize=auto;html=1;exitX=0.5;exitY=1;exitDx=0;exitDy=0;exitPerimeter=0;strokeWidth=2;dashed=1;strokeColor=#A8A8A8;" edge="1" parent="1" source="L_uKkAGZL4GMWtxyW87k-8" target="L_uKkAGZL4GMWtxyW87k-4">
          <mxGeometry relative="1" as="geometry" />
        </mxCell>
        <mxCell id="L_uKkAGZL4GMWtxyW87k-17" value="Agenda Consulta" style="edgeLabel;html=1;align=center;verticalAlign=middle;resizable=0;points=[];" vertex="1" connectable="0" parent="L_uKkAGZL4GMWtxyW87k-10">
          <mxGeometry x="-0.2" y="-1" relative="1" as="geometry">
            <mxPoint as="offset" />
          </mxGeometry>
        </mxCell>
        <mxCell id="L_uKkAGZL4GMWtxyW87k-16" style="edgeStyle=none;rounded=0;orthogonalLoop=1;jettySize=auto;html=1;exitX=0.25;exitY=1;exitDx=0;exitDy=0;exitPerimeter=0;entryX=0.75;entryY=0;entryDx=0;entryDy=0;entryPerimeter=0;dashed=1;strokeColor=#A8A8A8;strokeWidth=2;" edge="1" parent="1" source="L_uKkAGZL4GMWtxyW87k-8" target="L_uKkAGZL4GMWtxyW87k-3">
          <mxGeometry relative="1" as="geometry" />
        </mxCell>
        <mxCell id="L_uKkAGZL4GMWtxyW87k-18" value="Recupera Id do exame para &lt;br&gt;anexar a consulta" style="edgeLabel;html=1;align=center;verticalAlign=middle;resizable=0;points=[];" vertex="1" connectable="0" parent="L_uKkAGZL4GMWtxyW87k-16">
          <mxGeometry x="-0.0648" y="-2" relative="1" as="geometry">
            <mxPoint as="offset" />
          </mxGeometry>
        </mxCell>
        <mxCell id="L_uKkAGZL4GMWtxyW87k-8" value="&lt;span&gt;&lt;b&gt;ConsultaService&lt;/b&gt;&lt;/span&gt;&lt;br&gt;&lt;div&gt;[Container:&amp;nbsp;&lt;span&gt;Kotlin&lt;/span&gt;&lt;span&gt;]&lt;/span&gt;&lt;/div&gt;&lt;div&gt;&lt;br&gt;&lt;/div&gt;&lt;div&gt;Regras de negócio e criação do payload&lt;/div&gt;" style="rounded=1;whiteSpace=wrap;html=1;labelBackgroundColor=none;fillColor=#dae8fc;fontColor=#000000;align=center;arcSize=10;strokeColor=#6c8ebf;points=[[0.25,0,0],[0.5,0,0],[0.75,0,0],[1,0.25,0],[1,0.5,0],[1,0.75,0],[0.75,1,0],[0.5,1,0],[0.25,1,0],[0,0.75,0],[0,0.5,0],[0,0.25,0]];" vertex="1" parent="1">
          <mxGeometry x="465" y="330" width="160" height="80" as="geometry" />
        </mxCell>
      </root>
    </mxGraphModel>
  </diagram>
</mxfile>
